/* XPM */
static char *result[] = {
/* columns rows colors chars-per-pixel */
"64 64 144 2 ",
"   c black",
".  c #010000",
"X  c #020000",
"o  c #030101",
"O  c #040101",
"+  c #050101",
"@  c #060201",
"#  c #070202",
"$  c #080202",
"%  c #090302",
"&  c #0A0302",
"*  c #0A0303",
"=  c #0B0303",
"-  c #140605",
";  c #150705",
":  c #160706",
">  c #170706",
",  c #180706",
"<  c #1A0807",
"1  c #1B0807",
"2  c #1C0907",
"3  c #1F0806",
"4  c #1E0907",
"5  c #1E0908",
"6  c #1F0A08",
"7  c #200A08",
"8  c #210A08",
"9  c #220A08",
"0  c #230B09",
"q  c #240B09",
"w  c #250B09",
"e  c #260C09",
"r  c #270C0A",
"t  c #2A0B09",
"y  c #280C0A",
"u  c #290D0A",
"i  c #2A0D0A",
"p  c #2B0D0B",
"a  c #2C0D0B",
"s  c #2C0E0B",
"d  c #2D0E0B",
"f  c #2E0E0B",
"g  c #300F0C",
"h  c #310F0C",
"j  c #33100D",
"k  c #34100D",
"l  c #36100D",
"z  c #36110D",
"x  c #37110E",
"c  c #38110E",
"v  c #39110E",
"b  c #3A120E",
"n  c #3B120F",
"m  c #3D130F",
"M  c #3E130F",
"N  c #44110E",
"B  c #441511",
"V  c #451511",
"C  c #461511",
"Z  c #471612",
"A  c #4A1712",
"S  c #4C1713",
"D  c #4D1813",
"F  c #541A15",
"G  c #561A15",
"H  c #571B16",
"J  c #581B16",
"K  c #5A1B16",
"L  c #5B1C16",
"P  c #5B1C17",
"I  c #5C1C17",
"U  c #5E1D17",
"Y  c #5F1D17",
"T  c #671A16",
"R  c #68201A",
"E  c #69201A",
"W  c #6B211B",
"Q  c #6C211B",
"!  c #6D211B",
"~  c #6E211B",
"^  c #6E221B",
"/  c #70221C",
"(  c #71221C",
")  c #73231D",
"_  c #74231D",
"`  c #75241D",
"'  c #77241D",
"]  c #77241E",
"[  c #78251E",
"{  c #79251E",
"}  c #7A251E",
"|  c #7B251E",
" . c #7C261F",
".. c #87221D",
"X. c #802720",
"o. c #882922",
"O. c #892A22",
"+. c #8A2A22",
"@. c #8B2A22",
"#. c #8C2B23",
"$. c #8D2B23",
"%. c #8E2B23",
"&. c #8F2C23",
"*. c #972E25",
"=. c #982E26",
"-. c #992F26",
";. c #9A2F26",
":. c #9B2F26",
">. c #9C2F27",
",. c #9C3027",
"<. c #9D3027",
"1. c #9F3027",
"2. c #AA2B24",
"3. c #A03128",
"4. c #A13128",
"5. c #A33228",
"6. c #A53229",
"7. c #A73329",
"8. c #AE352B",
"9. c #AF352B",
"0. c #B0362C",
"q. c #B1362C",
"w. c #B2362C",
"e. c #B3362C",
"r. c #BB392E",
"t. c #BC392E",
"y. c #BD392F",
"u. c #BD3A2F",
"i. c #BE3A2F",
"p. c #BF3A2F",
"a. c #C03A30",
"s. c #C23B30",
"d. c #C33B30",
"f. c #C43C31",
"g. c #C53C31",
"h. c #C63C31",
"j. c #CD3E33",
"k. c #CE3F33",
"l. c #CF3F33",
"z. c #D03F33",
"x. c #D03F34",
"c. c #D14034",
"v. c #D24034",
"b. c #33FF33",
/* pixels */
"b.b.b.b.b.b.b.b.b.b.b.b.b.b.b.b.b.b.b.b.b.b.b.b.b.b.b.b.b.b.b.b.b.b.b.b.b.b.b.b.b.b.b.b.b.b.b.b.b.b.b.b.b.b.b.b.b.b.b.b.b.b.b.b.",
"b.b.b.b.b.b.b.b.b.b.b.b.b.b.b.b.b.b.b.b.b.b.b.b.b.b.b.b.b.b.        b.b.b.b.b.b.b.b.b.b.b.b.b.b.b.b.b.b.b.b.b.b.b.b.b.b.b.b.b.b.",
"b.b.b.b.b.b.b.b.b.b.b.b.b.b.b.b.b.b.b.b.b.b.b.b.b.b.b.b.b.            b.b.b.b.b.b.b.b.b.b.b.b.b.b.b.b.b.b.b.b.b.b.b.b.b.b.b.b.b.",
"b.b.b.b.b.b.b.b.b.b.b.b.b.b.b.b.b.b.b.b.b.b.b.b.b.b.b.b.b.    <.4.    b.b.b.b.b.b.b.b.b.b.b.b.b.b.b.b.b.b.b.b.b.b.b.b.b.b.b.b.b.",
"b.b.b.b.b.b.b.b.b.b.b.b.b.b.b.b.b.b.b.b.b.b.b.b.b.b.b.        x.v.X       b.b.b.b.b.b.b.b.b.b.b.b.b.b.b.b.b.b.b.b.b.b.b.b.b.b.b.",
"b.b.b.b.b.b.b.b.b.b.b.b.b.b.b.b.b.b.b.b.b.b.b.              a v.v.d               b.b.b.b.b.b.b.b.b.b.b.b.b.b.b.b.b.b.b.b.b.b.b.",
"b.b.b.b.b.b.b.b.b.b.b.b.b.b.b.b.b.b.b.b.b.        5 D  .-.e.z.v.v.z.w.=.| D 4         b.b.b.b.b.b.b.b.b.b.b.b.b.b.b.b.b.b.b.b.b.",
"b.b.b.b.b.b.b.b.b.b.b.b.b.b.b.b.b.b.b.      8 ( e.v.v.v.v.v.v.v.v.v.v.v.v.v.v.w./ 7       b.b.b.b.b.b.b.b.b.b.b.b.b.b.b.b.b.b.b.",
"b.b.b.b.b.b.b.b.b.b.b.b.b.b.b.b.b.      c >.c.v.v.r.o.K b 6 V v.v.C 9 n I +.y.v.v.c.:.x       b.b.b.b.b.b.b.b.b.b.b.b.b.b.b.b.b.",
"b.b.b.b.b.b.b.b.b.b.b.b.b.b.b.      r <.v.v.s.) p .           v.v.          . d ` f.v.v.>.w       b.b.b.b.b.b.b.b.b.b.b.b.b.b.b.",
"b.b.b.b.b.b.b.b.b.b.b.b.b.b.    + ~ k.v.t.G #         b.b.    <.<.    b.b.        $ J u.v.k.! +     b.b.b.b.b.b.b.b.b.b.b.b.b.b.",
"b.b.b.b.b.b.b.b.b.b.b.b.b.    > 5.v.j.E #       b.b.b.b.b.            b.b.b.b.b.      $ W k.v.7.<     b.b.b.b.b.b.b.b.b.b.b.b.b.",
"b.b.b.b.b.b.b.b.b.b.b.b.    i a.v.8.0       b.b.b.b.b.b.b.b.        b.b.b.b.b.b.b.b.      w 9.v.p.u     b.b.b.b.b.b.b.b.b.b.b.b.",
"b.b.b.b.b.b.b.b.b.b.b.    j h.v.+.%     b.b.b.b.b.b.b.b.b.b.b.b.b.b.b.b.b.b.b.b.b.b.b.b.    & @.v.h.j     b.b.b.b.b.b.b.b.b.b.b.",
"b.b.b.b.b.b.b.b.b.b.    r g.v.] .     b.b.b.b.b.b.b.b.b.b.b.b.b.b.b.b.b.b.b.b.b.b.b.b.b.b.    . [ v.h.i     b.b.b.b.b.b.b.b.b.b.",
"b.b.b.b.b.b.b.b.b.    , a.v.}       b.b.b.b.b.b.b.b.b.b.b.b.b.b.b.b.b.b.b.b.b.b.b.b.b.b.b.b.      ` v.p.>     b.b.b.b.b.b.b.b.b.",
"b.b.b.b.b.b.b.b.b.  O 4.v.+..   b.b.b.b.b.b.b.b.b.b.b.b.b.b.b.b.b.b.b.b.b.b.b.b.b.b.b.b.b.b.b.b.  . #.v.6.+   b.b.b.b.b.b.b.b.b.",
"b.b.b.b.b.b.b.b.    ~ v.8.%     b.b.b.b.b.b.b.b.b.b.b.b.b.b.b.b.b.b.b.b.b.b.b.b.b.b.b.b.b.b.b.b.    % 9.v.W     b.b.b.b.b.b.b.b.",
"b.b.b.b.b.b.b.b.  w k.j.0     b.b.b.b.b.b.b.b.b.b.b.b.b.b.b.b.b.b.b.b.b.b.b.b.b.b.b.b.b.b.b.b.b.b.    e k.j.0   b.b.b.b.b.b.b.b.",
"b.b.b.b.b.b.b.    ,.v.E     b.b.b.b.b.b.b.b.b.b.b.b.b.b.b.b.b.b.b.b.b.b.b.b.b.b.b.b.b.b.b.b.b.b.b.b.    ! v.;.    b.b.b.b.b.b.b.",
"b.b.b.b.b.b.b.  x v.u.$   b.b.b.b.b.b.b.b.b.b.b.b.b.b.b.b.b.b.b.b.b.b.b.b.b.b.b.b.b.b.b.b.b.b.b.b.b.b.  # t.v.z   b.b.b.b.b.b.b.",
"b.b.b.b.b.b.    :.v.G     b.b.b.b.b.b.b.b.b.b.b.b.b.b.b.b.b.b.b.b.b.b.b.b.b.b.b.b.b.b.b.b.b.b.b.b.b.b.    J v.-.    b.b.b.b.b.b.",
"b.b.b.b.b.b.  9 c.d.#   b.b.b.b.b.b.b.b.b.b.b.b.b.b.b.b.b.b.b.b.b.b.b.b.b.b.b.b.b.b.b.b.b.b.b.b.b.b.b.b.  $ f.c.7   b.b.b.b.b.b.",
"b.b.b.b.b.    ( v._     b.b.b.b.b.b.b.b.b.b.b.b.b.b.b.b.b.b.b.b.b.b.b.b.b.b.b.b.b.b.b.b.b.b.b.b.b.b.b.b.    ` v.~     b.b.b.b.b.",
"b.b.b.b.b.    w.v.a   b.b.b.b.b.b.b.b.b.b.b.b.b.b.b.b.b.b.b.b.b.b.b.b.b.b.b.b.b.b.b.b.b.b.b.b.b.b.b.b.b.b.  f v.0.    b.b.b.b.b.",
"b.b.b.b.b.  5 v.t..   b.b.b.b.b.b.b.b.b.b.b.b.b.b.b.b.b.b.b.b.b.b.b.b.b.b.b.b.b.b.b.b.b.b.b.b.b.b.b.b.b.b.  . y.v.2   b.b.b.b.b.",
"b.b.b.b.b.  D v.O.    b.b.b.b.b.b.b.b.b.b.b.b.b.b.b.b.b.              b.b.b.    b.b.b.b.b.b.b.b.b.b.b.b.b.    +.v.S   b.b.b.b.b.",
"b.b.b.b.    } v.P   b.b.b.b.b.b.b.b.b.b.b.b.b.b.b.b.b.b.              b.b.b.        b.b.b.b.b.b.b.b.b.b.b.b.  I v.[     b.b.b.b.",
"b.b.b.b.    -.v.b   b.b.b.b.b.b.b.b.b.b.b.b.b.b.b.b.b.b.    b.b.b.b.b.b.b.b.b.          b.b.b.b.b.b.b.b.b.b.  n v.=.    b.b.b.b.",
"b.b.        w.v.8       b.b.b.b.b.b.b.b.b.b.b.b.b.b.b.b.    b.b.b.b.b.b.b.b.b.    @ #   .   b.b.b.b.b.b.      6 v.e.        b.b.",
"b.        s z.v.C         b.b.b.b.b.b.b.b.b.b.b.b.b.b.b.    b.b.b.b.b.b.b.b.b.b..   X.F X     b.b.b.b.        V v.z.s         b.",
"b.    1.v.v.v.v.v.v.<.    b.b.b.b.b.b.b.b.b.b.b.b.b.b.b.              b.b.b.b.b.b.  w v.7.k       b.b.    1.v.v.v.v.v.v.<.    b.",
"b.    1.v.v.v.v.v.v.<.    b.b.b.b.b.b.b.b.b.b.b.b.b.b.b.              b.b.b.b.b.b.  3 2...t       b.b.    1.v.v.v.v.v.v.<.    b.",
"b.        s z.v.B         b.b.b.b.b.b.b.b.b.b.b.b.b.b.b.    b.b.b.b.b.b.b.b.b.b.    T N .     b.b.b.b.        C v.z.a         b.",
"b.b.        e.v.6       b.b.b.b.b.b.b.b.b.b.b.b.b.b.b.b.    b.b.b.b.b.b.b.b.b.    + +       b.b.b.b.b.b.      8 v.q.        b.b.",
"b.b.b.b.    ;.v.v   b.b.b.b.b.b.b.b.b.b.b.b.b.b.b.b.b.b.    b.b.b.b.b.b.b.b.b.          b.b.b.b.b.b.b.b.b.b.  M v.*.    b.b.b.b.",
"b.b.b.b.    | v.L   b.b.b.b.b.b.b.b.b.b.b.b.b.b.b.b.b.b.              b.b.b.        b.b.b.b.b.b.b.b.b.b.b.b.  Y v.]     b.b.b.b.",
"b.b.b.b.b.  D v.O.    b.b.b.b.b.b.b.b.b.b.b.b.b.b.b.b.b.              b.b.b.    b.b.b.b.b.b.b.b.b.b.b.b.b.    %.v.A   b.b.b.b.b.",
"b.b.b.b.b.  5 v.t..   b.b.b.b.b.b.b.b.b.b.b.b.b.b.b.b.b.b.b.b.b.b.b.b.b.b.b.b.b.b.b.b.b.b.b.b.b.b.b.b.b.b.  X p.v.1   b.b.b.b.b.",
"b.b.b.b.b.    w.v.s   b.b.b.b.b.b.b.b.b.b.b.b.b.b.b.b.b.b.b.b.b.b.b.b.b.b.b.b.b.b.b.b.b.b.b.b.b.b.b.b.b.b.  h v.9.    b.b.b.b.b.",
"b.b.b.b.b.    / v._     b.b.b.b.b.b.b.b.b.b.b.b.b.b.b.b.b.b.b.b.b.b.b.b.b.b.b.b.b.b.b.b.b.b.b.b.b.b.b.b.    [ v.Q     b.b.b.b.b.",
"b.b.b.b.b.b.  5 c.d.#   b.b.b.b.b.b.b.b.b.b.b.b.b.b.b.b.b.b.b.b.b.b.b.b.b.b.b.b.b.b.b.b.b.b.b.b.b.b.b.b.  % g.c.5   b.b.b.b.b.b.",
"b.b.b.b.b.b.    ;.v.H     b.b.b.b.b.b.b.b.b.b.b.b.b.b.b.b.b.b.b.b.b.b.b.b.b.b.b.b.b.b.b.b.b.b.b.b.b.b.    L v.=.    b.b.b.b.b.b.",
"b.b.b.b.b.b.b.  j v.u.$   b.b.b.b.b.b.b.b.b.b.b.b.b.b.b.b.b.b.b.b.b.b.b.b.b.b.b.b.b.b.b.b.b.b.b.b.b.b.  & p.v.l   b.b.b.b.b.b.b.",
"b.b.b.b.b.b.b.    :.v.W     b.b.b.b.b.b.b.b.b.b.b.b.b.b.b.b.b.b.b.b.b.b.b.b.b.b.b.b.b.b.b.b.b.b.b.b.    / v.=.    b.b.b.b.b.b.b.",
"b.b.b.b.b.b.b.b.  q j.j.w     b.b.b.b.b.b.b.b.b.b.b.b.b.b.b.b.b.b.b.b.b.b.b.b.b.b.b.b.b.b.b.b.b.b.    y l.j.0   b.b.b.b.b.b.b.b.",
"b.b.b.b.b.b.b.b.    Q v.w.=     b.b.b.b.b.b.b.b.b.b.b.b.b.b.b.b.b.b.b.b.b.b.b.b.b.b.b.b.b.b.b.b.    & 0.v.R     b.b.b.b.b.b.b.b.",
"b.b.b.b.b.b.b.b.b.  o 3.v.#..   b.b.b.b.b.b.b.b.b.b.b.b.b.b.b.b.b.b.b.b.b.b.b.b.b.b.b.b.b.b.b.b.  X &.v.5.O   b.b.b.b.b.b.b.b.b.",
"b.b.b.b.b.b.b.b.b.    > i.v. .      b.b.b.b.b.b.b.b.b.b.b.b.b.b.b.b.b.b.b.b.b.b.b.b.b.b.b.b.      ] v.y.-     b.b.b.b.b.b.b.b.b.",
"b.b.b.b.b.b.b.b.b.b.    w f.v.{ .     b.b.b.b.b.b.b.b.b.b.b.b.b.b.b.b.b.b.b.b.b.b.b.b.b.b.    X  .v.h.y     b.b.b.b.b.b.b.b.b.b.",
"b.b.b.b.b.b.b.b.b.b.b.    h h.v.$.&     b.b.b.b.b.b.b.b.b.b.b.b.b.b.b.b.b.b.b.b.b.b.b.b.    * &.v.g.h     b.b.b.b.b.b.b.b.b.b.b.",
"b.b.b.b.b.b.b.b.b.b.b.b.    y i.v.q.r       b.b.b.b.b.b.b.b.        b.b.b.b.b.b.b.b.      y w.v.u.e     b.b.b.b.b.b.b.b.b.b.b.b.",
"b.b.b.b.b.b.b.b.b.b.b.b.b.    : 4.v.k.^ %       b.b.b.b.b.            b.b.b.b.b.      & / l.v.4.;     b.b.b.b.b.b.b.b.b.b.b.b.b.",
"b.b.b.b.b.b.b.b.b.b.b.b.b.b.    O W j.v.p.K %         b.b.    1.1.    b.b.        % L p.v.j.E o     b.b.b.b.b.b.b.b.b.b.b.b.b.b.",
"b.b.b.b.b.b.b.b.b.b.b.b.b.b.b.      q ;.v.v.g.' g X           v.v.          X h [ h.v.v.=.0       b.b.b.b.b.b.b.b.b.b.b.b.b.b.b.",
"b.b.b.b.b.b.b.b.b.b.b.b.b.b.b.b.b.      l -.c.v.v.i.#.U m 9 Z v.v.C 9 m Y $.p.v.v.c.=.k       b.b.b.b.b.b.b.b.b.b.b.b.b.b.b.b.b.",
"b.b.b.b.b.b.b.b.b.b.b.b.b.b.b.b.b.b.b.      6 ~ 0.v.v.v.v.v.v.v.v.v.v.v.v.v.v.9.! 5       b.b.b.b.b.b.b.b.b.b.b.b.b.b.b.b.b.b.b.",
"b.b.b.b.b.b.b.b.b.b.b.b.b.b.b.b.b.b.b.b.b.        2 S [ =.q.z.v.v.z.w.=.[ S 2         b.b.b.b.b.b.b.b.b.b.b.b.b.b.b.b.b.b.b.b.b.",
"b.b.b.b.b.b.b.b.b.b.b.b.b.b.b.b.b.b.b.b.b.b.b.              s v.v.a               b.b.b.b.b.b.b.b.b.b.b.b.b.b.b.b.b.b.b.b.b.b.b.",
"b.b.b.b.b.b.b.b.b.b.b.b.b.b.b.b.b.b.b.b.b.b.b.b.b.b.b.        v.v.        b.b.b.b.b.b.b.b.b.b.b.b.b.b.b.b.b.b.b.b.b.b.b.b.b.b.b.",
"b.b.b.b.b.b.b.b.b.b.b.b.b.b.b.b.b.b.b.b.b.b.b.b.b.b.b.b.b.    <.<.    b.b.b.b.b.b.b.b.b.b.b.b.b.b.b.b.b.b.b.b.b.b.b.b.b.b.b.b.b.",
"b.b.b.b.b.b.b.b.b.b.b.b.b.b.b.b.b.b.b.b.b.b.b.b.b.b.b.b.b.            b.b.b.b.b.b.b.b.b.b.b.b.b.b.b.b.b.b.b.b.b.b.b.b.b.b.b.b.b.",
"b.b.b.b.b.b.b.b.b.b.b.b.b.b.b.b.b.b.b.b.b.b.b.b.b.b.b.b.b.b.        b.b.b.b.b.b.b.b.b.b.b.b.b.b.b.b.b.b.b.b.b.b.b.b.b.b.b.b.b.b.",
"b.b.b.b.b.b.b.b.b.b.b.b.b.b.b.b.b.b.b.b.b.b.b.b.b.b.b.b.b.b.b.b.b.b.b.b.b.b.b.b.b.b.b.b.b.b.b.b.b.b.b.b.b.b.b.b.b.b.b.b.b.b.b.b."
};
