/* XPM */
static char *result[] = {
/* columns rows colors chars-per-pixel */
"64 64 145 2 ",
"   c black",
".  c #010000",
"X  c #020000",
"o  c #030101",
"O  c #040101",
"+  c #050101",
"@  c #060201",
"#  c #070202",
"$  c #080202",
"%  c #090302",
"&  c #0A0302",
"*  c #0A0303",
"=  c #0B0303",
"-  c #140605",
";  c #150705",
":  c #160706",
">  c #170706",
",  c #180706",
"<  c #1D0706",
"1  c #1A0806",
"2  c #1B0807",
"3  c #1C0907",
"4  c #1E0907",
"5  c #1E0908",
"6  c #1F0A08",
"7  c #200A08",
"8  c #210A08",
"9  c #220A08",
"0  c #230B09",
"q  c #240B09",
"w  c #250B09",
"e  c #260C09",
"r  c #270C0A",
"t  c #2A0B09",
"y  c #280C0A",
"u  c #290D0A",
"i  c #2A0D0A",
"p  c #2B0D0B",
"a  c #2C0D0B",
"s  c #2C0E0B",
"d  c #2D0E0B",
"f  c #2E0E0B",
"g  c #300F0C",
"h  c #310F0C",
"j  c #3D0F0D",
"k  c #33100D",
"l  c #34100D",
"z  c #36100D",
"x  c #36110D",
"c  c #37110E",
"v  c #38110E",
"b  c #39110E",
"n  c #3A120E",
"m  c #3B120F",
"M  c #3D130F",
"N  c #3E130F",
"B  c #441511",
"V  c #451511",
"C  c #461511",
"Z  c #471612",
"A  c #4A1712",
"S  c #4C1713",
"D  c #4D1713",
"F  c #4D1813",
"G  c #4E1813",
"H  c #561A15",
"J  c #571B16",
"K  c #581B16",
"L  c #5A1B16",
"P  c #5B1C16",
"I  c #5B1C17",
"U  c #5C1C17",
"Y  c #5E1D17",
"T  c #5F1D17",
"R  c #681A16",
"E  c #68201A",
"W  c #69201A",
"Q  c #6B211B",
"!  c #6C211B",
"~  c #6D211B",
"^  c #6E211B",
"/  c #6E221B",
"(  c #6F221C",
")  c #70221C",
"_  c #71221C",
"`  c #73231D",
"'  c #74231D",
"]  c #75241D",
"[  c #77241D",
"{  c #77241E",
"}  c #78251E",
"|  c #79251E",
" . c #7A251E",
".. c #7B251E",
"X. c #7C261F",
"o. c #89231D",
"O. c #802720",
"+. c #882922",
"@. c #892A22",
"#. c #8A2A22",
"$. c #8B2A22",
"%. c #8C2B23",
"&. c #8D2B23",
"*. c #8E2B23",
"=. c #8F2C23",
"-. c #972E25",
";. c #982E26",
":. c #992F26",
">. c #9A2F26",
",. c #9B2F26",
"<. c #9C3027",
"1. c #9D3027",
"2. c #9F3027",
"3. c #AA2B24",
"4. c #A03128",
"5. c #A13128",
"6. c #A33228",
"7. c #A43229",
"8. c #A63329",
"9. c #A73329",
"0. c #AE352B",
"q. c #AF352B",
"w. c #B0362C",
"e. c #B1362C",
"r. c #B2362C",
"t. c #B3362C",
"y. c #BB392E",
"u. c #BC392E",
"i. c #BD392F",
"p. c #BD3A2F",
"a. c #BE3A2F",
"s. c #BF3A2F",
"d. c #C03A30",
"f. c #C23B30",
"g. c #C33B30",
"h. c #C43C31",
"j. c #C53C31",
"k. c #C63C31",
"l. c #CD3E33",
"z. c #CE3F33",
"x. c #CF3F33",
"c. c #D03F33",
"v. c #D14034",
"b. c #D24034",
"n. c #FF0000",
/* pixels */
"n.n.n.n.n.n.n.n.n.n.n.n.n.n.n.n.n.n.n.n.n.n.n.n.n.n.n.n.n.n.n.n.n.n.n.n.n.n.n.n.n.n.n.n.n.n.n.n.n.n.n.n.n.n.n.n.n.n.n.n.n.n.n.n.",
"n.n.n.n.n.n.n.n.n.n.n.n.n.n.n.n.n.n.n.n.n.n.n.n.n.n.n.n.n.n.        n.n.n.n.n.n.n.n.n.n.n.n.n.n.n.n.n.n.n.n.n.n.n.n.n.n.n.n.n.n.",
"n.n.n.n.n.n.n.n.n.n.n.n.n.n.n.n.n.n.n.n.n.n.n.n.n.n.n.n.n.            n.n.n.n.n.n.n.n.n.n.n.n.n.n.n.n.n.n.n.n.n.n.n.n.n.n.n.n.n.",
"n.n.n.n.n.n.n.n.n.n.n.n.n.n.n.n.n.n.n.n.n.n.n.n.n.n.n.n.n.    2.2.    n.n.n.n.n.n.n.n.n.n.n.n.n.n.n.n.n.n.n.n.n.n.n.n.n.n.n.n.n.",
"n.n.n.n.n.n.n.n.n.n.n.n.n.n.n.n.n.n.n.n.n.n.n.n.n.n.n.        b.b.        n.n.n.n.n.n.n.n.n.n.n.n.n.n.n.n.n.n.n.n.n.n.n.n.n.n.n.",
"n.n.n.n.n.n.n.n.n.n.n.n.n.n.n.n.n.n.n.n.n.n.n.              d b.b.a               n.n.n.n.n.n.n.n.n.n.n.n.n.n.n.n.n.n.n.n.n.n.n.",
"n.n.n.n.n.n.n.n.n.n.n.n.n.n.n.n.n.n.n.n.n.        5 G X.:.t.c.b.b.c.r.;. .D 4         n.n.n.n.n.n.n.n.n.n.n.n.n.n.n.n.n.n.n.n.n.",
"n.n.n.n.n.n.n.n.n.n.n.n.n.n.n.n.n.n.n.      8 _ t.b.b.b.b.b.b.b.b.b.b.b.b.b.b.e.( 7       n.n.n.n.n.n.n.n.n.n.n.n.n.n.n.n.n.n.n.",
"n.n.n.n.n.n.n.n.n.n.n.n.n.n.n.n.n.      c ,.v.b.b.y.+.L n 6 V b.b.V 9 m U #.i.b.b.v.>.x       n.n.n.n.n.n.n.n.n.n.n.n.n.n.n.n.n.",
"n.n.n.n.n.n.n.n.n.n.n.n.n.n.n.      e <.b.b.f.` p .           b.b.          . d ] h.b.b.,.q       n.n.n.n.n.n.n.n.n.n.n.n.n.n.n.",
"n.n.n.n.n.n.n.n.n.n.n.n.n.n.    + ^ z.b.u.H #         n.n.    1.1.    n.n.        $ K p.b.z.Q O     n.n.n.n.n.n.n.n.n.n.n.n.n.n.",
"n.n.n.n.n.n.n.n.n.n.n.n.n.    > 6.b.l.W #       n.n.n.n.n.            n.n.n.n.n.      $ Q z.b.8.1     n.n.n.n.n.n.n.n.n.n.n.n.n.",
"n.n.n.n.n.n.n.n.n.n.n.n.    i d.b.0.0       n.n.n.n.n.n.n.n.        n.n.n.n.n.n.n.n.      w q.b.a.y     n.n.n.n.n.n.n.n.n.n.n.n.",
"n.n.n.n.n.n.n.n.n.n.n.    k k.b.#.%     n.n.n.n.n.n.n.n.n.n.n.n.n.n.n.n.n.n.n.n.n.n.n.n.    & $.b.k.h     n.n.n.n.n.n.n.n.n.n.n.",
"n.n.n.n.n.n.n.n.n.n.    r j.b.{ .     n.n.n.n.n.n.n.n.n.n.n.n.n.n.n.n.n.n.n.n.n.n.n.n.n.n.    . } b.k.u     n.n.n.n.n.n.n.n.n.n.",
"n.n.n.n.n.n.n.n.n.    , d.b. .      n.n.n.n.n.n.n.n.n.n.n.n.n.    n.n.n.n.n.n.n.n.n.n.n.n.n.      ] b.a.:     n.n.n.n.n.n.n.n.n.",
"n.n.n.n.n.n.n.n.n.  O 5.b.#..   n.n.n.n.n.n.n.n.n.n.n.n.n.n.n.    n.n.n.n.n.n.n.n.n.n.n.n.n.n.n.  . %.b.7.+   n.n.n.n.n.n.n.n.n.",
"n.n.n.n.n.n.n.n.    ^ b.0.%     n.n.n.n.n.n.n.n.n.n.n.n.n.n.        n.n.n.n.n.n.n.n.n.n.n.n.n.n.    % q.b.Q     n.n.n.n.n.n.n.n.",
"n.n.n.n.n.n.n.n.  w z.l.0     n.n.n.n.n.n.n.n.n.n.n.n.n.n.    l t     n.n.n.n.n.n.n.n.n.n.n.n.n.n.    e z.l.0   n.n.n.n.n.n.n.n.",
"n.n.n.n.n.n.n.    <.b.W     n.n.n.n.n.n.n.n.n.n.n.n.n.n.n.. . 9.o..   n.n.n.n.n.n.n.n.n.n.n.n.n.n.n.    ~ b.>.    n.n.n.n.n.n.n.",
"n.n.n.n.n.n.n.  v b.p.$   n.n.n.n.n.n.n.n.n.n.n.n.n.n.n.    S b.3.j     n.n.n.n.n.n.n.n.n.n.n.n.n.n.n.  # u.b.x   n.n.n.n.n.n.n.",
"n.n.n.n.n.n.    ,.b.H     n.n.n.n.n.n.n.n.n.n.n.n.n.n.n.  # O.q < R +   n.n.n.n.n.n.n.n.n.n.n.n.n.n.n.    K b.:.    n.n.n.n.n.n.",
"n.n.n.n.n.n.  8 v.g.#   n.n.n.n.n.n.n.n.n.n.n.n.n.n.n.    @         +     n.n.n.n.n.n.n.n.n.n.n.n.n.n.n.  $ h.v.7   n.n.n.n.n.n.",
"n.n.n.n.n.    ) b.'     n.n.n.n.n.n.n.n.n.n.n.n.n.n.n.      . n.n.        n.n.n.n.n.n.n.n.n.n.n.n.n.n.n.    ] b.^     n.n.n.n.n.",
"n.n.n.n.n.    r.b.a   n.n.n.n.n.n.n.n.n.n.n.n.n.n.n.        n.n.n.n.        n.n.n.n.n.n.n.n.n.n.n.n.n.n.n.  f b.w.    n.n.n.n.n.",
"n.n.n.n.n.  4 b.u..   n.n.n.n.n.n.n.n.n.n.n.n.n.n.n.    n.n.n.n.n.n.n.n.    n.n.n.n.n.n.n.n.n.n.n.n.n.n.n.  . i.b.3   n.n.n.n.n.",
"n.n.n.n.n.  F b.@.    n.n.n.n.n.n.n.n.n.n.n.n.n.n.n.n.n.n.n.n.n.n.n.n.n.n.n.n.n.n.n.n.n.n.n.n.n.n.n.n.n.n.    #.b.S   n.n.n.n.n.",
"n.n.n.n.     .b.I   n.n.n.n.n.n.n.n.n.n.n.n.n.n.n.n.n.n.n.n.n.n.n.n.n.n.n.n.n.n.n.n.n.n.n.n.n.n.n.n.n.n.n.n.  U b.}     n.n.n.n.",
"n.n.n.n.    :.b.n   n.n.n.n.n.n.n.n.n.n.n.n.n.n.n.n.n.n.    n.n.n.n.    n.n.n.n.n.n.n.n.n.n.n.n.n.n.n.n.n.n.  m b.;.    n.n.n.n.",
"n.n.        r.b.8       n.n.n.n.n.n.n.n.n.n.n.n.n.n.n.n.      n.n.n.    n.n.n.n.n.n.n.n.n.n.n.n.n.n.n.n.      6 b.t.        n.n.",
"n.        s c.b.C         n.n.n.n.n.n.n.n.n.n.n.n.n.n.n.      n.n.n.    n.n.n.n.n.n.n.n.n.n.n.n.n.n.n.        V b.c.s         n.",
"n.    2.b.b.b.b.b.b.1.    n.n.n.n.n.n.n.n.n.n.n.n.n.n.n.        n.n.    n.n.n.n.n.n.n.n.n.n.n.n.n.n.n.    2.b.b.b.b.b.b.1.    n.",
"n.    2.b.b.b.b.b.b.1.    n.n.n.n.n.n.n.n.n.n.n.n.n.n.n.          n.    n.n.n.n.n.n.n.n.n.n.n.n.n.n.n.    2.b.b.b.b.b.b.1.    n.",
"n.        s c.b.B         n.n.n.n.n.n.n.n.n.n.n.n.n.n.n.    n.    n.    n.n.n.n.n.n.n.n.n.n.n.n.n.n.n.        C b.c.a         n.",
"n.n.        t.b.6       n.n.n.n.n.n.n.n.n.n.n.n.n.n.n.n.    n.          n.n.n.n.n.n.n.n.n.n.n.n.n.n.n.n.      8 b.e.        n.n.",
"n.n.n.n.    >.b.b   n.n.n.n.n.n.n.n.n.n.n.n.n.n.n.n.n.n.    n.n.        n.n.n.n.n.n.n.n.n.n.n.n.n.n.n.n.n.n.  N b.-.    n.n.n.n.",
"n.n.n.n.    ..b.P   n.n.n.n.n.n.n.n.n.n.n.n.n.n.n.n.n.n.    n.n.n.      n.n.n.n.n.n.n.n.n.n.n.n.n.n.n.n.n.n.  T b.{     n.n.n.n.",
"n.n.n.n.n.  F b.@.    n.n.n.n.n.n.n.n.n.n.n.n.n.n.n.n.n.    n.n.n.      n.n.n.n.n.n.n.n.n.n.n.n.n.n.n.n.n.    *.b.A   n.n.n.n.n.",
"n.n.n.n.n.  5 b.u..   n.n.n.n.n.n.n.n.n.n.n.n.n.n.n.n.n.    n.n.n.n.    n.n.n.n.n.n.n.n.n.n.n.n.n.n.n.n.n.  X s.b.2   n.n.n.n.n.",
"n.n.n.n.n.    r.b.s   n.n.n.n.n.n.n.n.n.n.n.n.n.n.n.n.n.n.n.n.n.n.n.n.n.n.n.n.n.n.n.n.n.n.n.n.n.n.n.n.n.n.  h b.q.    n.n.n.n.n.",
"n.n.n.n.n.    ) b.'     n.n.n.n.n.n.n.n.n.n.n.n.n.n.n.n.n.n.n.n.n.n.n.n.n.n.n.n.n.n.n.n.n.n.n.n.n.n.n.n.    } b.!     n.n.n.n.n.",
"n.n.n.n.n.n.  5 v.g.#   n.n.n.n.n.n.n.n.n.n.n.n.n.n.n.n.n.n.n.n.n.n.n.n.n.n.n.n.n.n.n.n.n.n.n.n.n.n.n.n.  % j.v.5   n.n.n.n.n.n.",
"n.n.n.n.n.n.    >.b.J     n.n.n.n.n.n.n.n.n.n.n.n.n.n.n.n.n.n.n.n.n.n.n.n.n.n.n.n.n.n.n.n.n.n.n.n.n.n.    P b.;.    n.n.n.n.n.n.",
"n.n.n.n.n.n.n.  k b.p.$   n.n.n.n.n.n.n.n.n.n.n.n.n.n.n.n.n.n.n.n.n.n.n.n.n.n.n.n.n.n.n.n.n.n.n.n.n.n.  & s.b.z   n.n.n.n.n.n.n.",
"n.n.n.n.n.n.n.    ,.b.Q     n.n.n.n.n.n.n.n.n.n.n.n.n.n.n.n.n.n.n.n.n.n.n.n.n.n.n.n.n.n.n.n.n.n.n.n.    ) b.;.    n.n.n.n.n.n.n.",
"n.n.n.n.n.n.n.n.  q l.l.w     n.n.n.n.n.n.n.n.n.n.n.n.n.n.n.n.n.n.n.n.n.n.n.n.n.n.n.n.n.n.n.n.n.n.    y x.l.0   n.n.n.n.n.n.n.n.",
"n.n.n.n.n.n.n.n.    ! b.r.=     n.n.n.n.n.n.n.n.n.n.n.n.n.n.n.n.n.n.n.n.n.n.n.n.n.n.n.n.n.n.n.n.    & w.b.E     n.n.n.n.n.n.n.n.",
"n.n.n.n.n.n.n.n.n.  o 4.b.%..   n.n.n.n.n.n.n.n.n.n.n.n.n.n.n.n.n.n.n.n.n.n.n.n.n.n.n.n.n.n.n.n.  X =.b.6.O   n.n.n.n.n.n.n.n.n.",
"n.n.n.n.n.n.n.n.n.    > a.b.X.      n.n.n.n.n.n.n.n.n.n.n.n.n.n.n.n.n.n.n.n.n.n.n.n.n.n.n.n.      { b.i.-     n.n.n.n.n.n.n.n.n.",
"n.n.n.n.n.n.n.n.n.n.    w h.b.| .     n.n.n.n.n.n.n.n.n.n.n.n.n.n.n.n.n.n.n.n.n.n.n.n.n.n.    X X.b.k.y     n.n.n.n.n.n.n.n.n.n.",
"n.n.n.n.n.n.n.n.n.n.n.    h k.b.&.&     n.n.n.n.n.n.n.n.n.n.n.n.n.n.n.n.n.n.n.n.n.n.n.n.    * =.b.j.h     n.n.n.n.n.n.n.n.n.n.n.",
"n.n.n.n.n.n.n.n.n.n.n.n.    y a.b.e.r       n.n.n.n.n.n.n.n.        n.n.n.n.n.n.n.n.      y r.b.p.e     n.n.n.n.n.n.n.n.n.n.n.n.",
"n.n.n.n.n.n.n.n.n.n.n.n.n.    : 5.b.z./ %       n.n.n.n.n.            n.n.n.n.n.      & ) x.b.5.;     n.n.n.n.n.n.n.n.n.n.n.n.n.",
"n.n.n.n.n.n.n.n.n.n.n.n.n.n.    O Q l.b.s.L %         n.n.    2.2.    n.n.        % P s.b.l.W o     n.n.n.n.n.n.n.n.n.n.n.n.n.n.",
"n.n.n.n.n.n.n.n.n.n.n.n.n.n.n.      q >.b.b.j.[ g X           b.b.          X h } k.b.b.;.0       n.n.n.n.n.n.n.n.n.n.n.n.n.n.n.",
"n.n.n.n.n.n.n.n.n.n.n.n.n.n.n.n.n.      z :.v.b.b.a.%.Y M 9 Z b.b.C 9 M T &.s.b.b.v.;.l       n.n.n.n.n.n.n.n.n.n.n.n.n.n.n.n.n.",
"n.n.n.n.n.n.n.n.n.n.n.n.n.n.n.n.n.n.n.      6 ^ w.b.b.b.b.b.b.b.b.b.b.b.b.b.b.q.~ 5       n.n.n.n.n.n.n.n.n.n.n.n.n.n.n.n.n.n.n.",
"n.n.n.n.n.n.n.n.n.n.n.n.n.n.n.n.n.n.n.n.n.        3 S } ;.e.c.b.b.c.r.;.} S 3         n.n.n.n.n.n.n.n.n.n.n.n.n.n.n.n.n.n.n.n.n.",
"n.n.n.n.n.n.n.n.n.n.n.n.n.n.n.n.n.n.n.n.n.n.n.              s b.b.a               n.n.n.n.n.n.n.n.n.n.n.n.n.n.n.n.n.n.n.n.n.n.n.",
"n.n.n.n.n.n.n.n.n.n.n.n.n.n.n.n.n.n.n.n.n.n.n.n.n.n.n.        b.b.        n.n.n.n.n.n.n.n.n.n.n.n.n.n.n.n.n.n.n.n.n.n.n.n.n.n.n.",
"n.n.n.n.n.n.n.n.n.n.n.n.n.n.n.n.n.n.n.n.n.n.n.n.n.n.n.n.n.    1.1.    n.n.n.n.n.n.n.n.n.n.n.n.n.n.n.n.n.n.n.n.n.n.n.n.n.n.n.n.n.",
"n.n.n.n.n.n.n.n.n.n.n.n.n.n.n.n.n.n.n.n.n.n.n.n.n.n.n.n.n.            n.n.n.n.n.n.n.n.n.n.n.n.n.n.n.n.n.n.n.n.n.n.n.n.n.n.n.n.n.",
"n.n.n.n.n.n.n.n.n.n.n.n.n.n.n.n.n.n.n.n.n.n.n.n.n.n.n.n.n.n.        n.n.n.n.n.n.n.n.n.n.n.n.n.n.n.n.n.n.n.n.n.n.n.n.n.n.n.n.n.n.",
"n.n.n.n.n.n.n.n.n.n.n.n.n.n.n.n.n.n.n.n.n.n.n.n.n.n.n.n.n.n.n.n.n.n.n.n.n.n.n.n.n.n.n.n.n.n.n.n.n.n.n.n.n.n.n.n.n.n.n.n.n.n.n.n."
};
