/* XPM */
static char *result[] = {
/* columns rows colors chars-per-pixel */
"64 64 147 2 ",
"   c black",
".  c #010000",
"X  c #020000",
"o  c #030101",
"O  c #040101",
"+  c #050101",
"@  c #060101",
"#  c #060201",
"$  c #060202",
"%  c #070202",
"&  c #080202",
"*  c #090302",
"=  c #0A0302",
"-  c #0A0303",
";  c #0B0303",
":  c #140605",
">  c #150705",
",  c #160706",
"<  c #170706",
"1  c #180706",
"2  c #1D0706",
"3  c #1A0807",
"4  c #1B0807",
"5  c #1C0907",
"6  c #1E0907",
"7  c #1E0908",
"8  c #1F0A08",
"9  c #200A08",
"0  c #210A08",
"q  c #220A08",
"w  c #230B09",
"e  c #240B09",
"r  c #250B09",
"t  c #260C09",
"y  c #270C0A",
"u  c #2A0B09",
"i  c #280C0A",
"p  c #290D0A",
"a  c #2A0D0A",
"s  c #2B0D0B",
"d  c #2C0D0B",
"f  c #2C0E0B",
"g  c #2D0E0B",
"h  c #2E0E0B",
"j  c #300F0C",
"k  c #310F0C",
"l  c #3C0F0D",
"z  c #33100D",
"x  c #34100D",
"c  c #36100D",
"v  c #36110D",
"b  c #37110E",
"n  c #38110E",
"m  c #39110E",
"M  c #3A120E",
"N  c #3B120F",
"B  c #3D130F",
"V  c #3E130F",
"C  c #441511",
"Z  c #451511",
"A  c #461511",
"S  c #471612",
"D  c #4A1712",
"F  c #4B1713",
"G  c #4C1713",
"H  c #4D1813",
"J  c #561A15",
"K  c #571B16",
"L  c #581B16",
"P  c #5A1B16",
"I  c #5B1C16",
"U  c #5B1C17",
"Y  c #5C1C17",
"T  c #5E1D17",
"R  c #5F1D17",
"E  c #681A16",
"W  c #68201A",
"Q  c #69201A",
"!  c #6B211B",
"~  c #6C211B",
"^  c #6D211B",
"/  c #6E211B",
"(  c #6E221B",
")  c #70221C",
"_  c #71221C",
"`  c #73231D",
"'  c #74231D",
"]  c #75241D",
"[  c #77241D",
"{  c #77241E",
"}  c #78251E",
"|  c #79251E",
" . c #7A251E",
".. c #7B251E",
"X. c #7C261F",
"o. c #89231D",
"O. c #802720",
"+. c #882922",
"@. c #892A22",
"#. c #8A2A22",
"$. c #8B2A22",
"%. c #8C2B23",
"&. c #8D2B23",
"*. c #8E2B23",
"=. c #8F2C23",
"-. c #972E25",
";. c #982E26",
":. c #992F26",
">. c #9A2F26",
",. c #9B2F26",
"<. c #9C2F27",
"1. c #9C3027",
"2. c #9D3027",
"3. c #9F3027",
"4. c #AA2B24",
"5. c #A03128",
"6. c #A13128",
"7. c #A33228",
"8. c #A53229",
"9. c #A63329",
"0. c #A73329",
"q. c #AE352B",
"w. c #AF352B",
"e. c #B0362C",
"r. c #B1362C",
"t. c #B2362C",
"y. c #B3362C",
"u. c #BB392E",
"i. c #BC392E",
"p. c #BD392F",
"a. c #BD3A2F",
"s. c #BE3A2F",
"d. c #BF3A2F",
"f. c #C03A30",
"g. c #C23B30",
"h. c #C33B30",
"j. c #C43C31",
"k. c #C53C31",
"l. c #C63C31",
"z. c #CD3E33",
"x. c #CE3F33",
"c. c #CF3F33",
"v. c #D03F33",
"b. c #D03F34",
"n. c #D14034",
"m. c #D24034",
"M. c #990044",
/* pixels */
"M.M.M.M.M.M.M.M.M.M.M.M.M.M.M.M.M.M.M.M.M.M.M.M.M.M.M.M.M.M.M.M.M.M.M.M.M.M.M.M.M.M.M.M.M.M.M.M.M.M.M.M.M.M.M.M.M.M.M.M.M.M.M.M.",
"M.M.M.M.M.M.M.M.M.M.M.M.M.M.M.M.M.M.M.M.M.M.M.M.M.M.M.M.M.M.        M.M.M.M.M.M.M.M.M.M.M.M.M.M.M.M.M.M.M.M.M.M.M.M.M.M.M.M.M.M.",
"M.M.M.M.M.M.M.M.M.M.M.M.M.M.M.M.M.M.M.M.M.M.M.M.M.M.M.M.M.            M.M.M.M.M.M.M.M.M.M.M.M.M.M.M.M.M.M.M.M.M.M.M.M.M.M.M.M.M.",
"M.M.M.M.M.M.M.M.M.M.M.M.M.M.M.M.M.M.M.M.M.M.M.M.M.M.M.M.M.    2.6.    M.M.M.M.M.M.M.M.M.M.M.M.M.M.M.M.M.M.M.M.M.M.M.M.M.M.M.M.M.",
"M.M.M.M.M.M.M.M.M.M.M.M.M.M.M.M.M.M.M.M.M.M.M.M.M.M.M.        b.m.X       M.M.M.M.M.M.M.M.M.M.M.M.M.M.M.M.M.M.M.M.M.M.M.M.M.M.M.",
"M.M.M.M.M.M.M.M.M.M.M.M.M.M.M.M.M.M.M.M.M.M.M.              d m.m.g               M.M.M.M.M.M.M.M.M.M.M.M.M.M.M.M.M.M.M.M.M.M.M.",
"M.M.M.M.M.M.M.M.M.M.M.M.M.M.M.M.M.M.M.M.M.        7 H X.:.y.v.m.m.v.t.;...H 6         M.M.M.M.M.M.M.M.M.M.M.M.M.M.M.M.M.M.M.M.M.",
"M.M.M.M.M.M.M.M.M.M.M.M.M.M.M.M.M.M.M.      0 _ y.m.m.m.m.m.m.m.m.m.m.m.m.m.m.t.) 9       M.M.M.M.M.M.M.M.M.M.M.M.M.M.M.M.M.M.M.",
"M.M.M.M.M.M.M.M.M.M.M.M.M.M.M.M.M.      n <.n.m.m.u.+.P M 8 Z m.m.Z q N Y #.p.m.m.n.,.b       M.M.M.M.M.M.M.M.M.M.M.M.M.M.M.M.M.",
"M.M.M.M.M.M.M.M.M.M.M.M.M.M.M.      y 2.m.m.g.` s .           m.m.          . g ] j.m.m.<.r       M.M.M.M.M.M.M.M.M.M.M.M.M.M.M.",
"M.M.M.M.M.M.M.M.M.M.M.M.M.M.    + / x.m.i.J %         M.M.    2.2.    M.M.        & L a.m.x.^ +     M.M.M.M.M.M.M.M.M.M.M.M.M.M.",
"M.M.M.M.M.M.M.M.M.M.M.M.M.    < 7.m.z.Q %       M.M.M.M.M.            M.M.M.M.M.      & ! x.m.0.3     M.M.M.M.M.M.M.M.M.M.M.M.M.",
"M.M.M.M.M.M.M.M.M.M.M.M.    a f.m.q.w       M.M.M.M.M.M.M.M.        M.M.M.M.M.M.M.M.      r w.m.d.p     M.M.M.M.M.M.M.M.M.M.M.M.",
"M.M.M.M.M.M.M.M.M.M.M.    z l.m.#.*     M.M.M.M.M.M.M.M.M.M.M.M.M.M.M.M.M.M.M.M.M.M.M.M.    = $.m.l.z     M.M.M.M.M.M.M.M.M.M.M.",
"M.M.M.M.M.M.M.M.M.M.    y k.m.{ .     M.M.M.M.M.M.M.M.M.M.M.M.M.M.M.M.M.M.M.M.M.M.M.M.M.M.    . } m.l.a     M.M.M.M.M.M.M.M.M.M.",
"M.M.M.M.M.M.M.M.M.    1 f.m. .      M.M.M.M.M.M.M.M.M.M.M.M.M.M.M.M.M.M.M.M.M.M.M.M.M.M.M.M.      ] m.d.<     M.M.M.M.M.M.M.M.M.",
"M.M.M.M.M.M.M.M.M.  O 6.m.#..   M.M.M.M.M.M.M.M.M.M.M.M.M.M.M.M.M.M.M.M.M.M.M.M.M.M.M.M.M.M.M.M.  . %.m.8.+   M.M.M.M.M.M.M.M.M.",
"M.M.M.M.M.M.M.M.    / m.q.*     M.M.M.M.M.M.M.M.M.M.M.M.M.M.M.M.M.M.M.M.M.M.M.M.M.M.M.M.M.M.M.M.    * w.m.!     M.M.M.M.M.M.M.M.",
"M.M.M.M.M.M.M.M.  r x.z.w     M.M.M.M.M.M.M.M.M.M.M.M.M.M.M.M.M.M.M.M.M.M.M.M.M.M.M.M.M.M.M.M.M.M.    t x.z.w   M.M.M.M.M.M.M.M.",
"M.M.M.M.M.M.M.    1.m.Q     M.M.M.M.M.M.M.M.M.M.M.M.M.M.M.M.M.M.M.M.M.M.M.M.M.M.M.M.M.M.M.M.M.M.M.M.    ^ m.>.    M.M.M.M.M.M.M.",
"M.M.M.M.M.M.M.  b m.a.&   M.M.M.M.M.M.M.M.M.M.M.M.M.M.M.M.M.M.M.M.M.M.M.M.M.M.M.M.M.M.M.M.M.M.M.M.M.M.  % i.m.v   M.M.M.M.M.M.M.",
"M.M.M.M.M.M.    ,.m.J     M.M.M.M.M.M.M.M.M.M.M.M.M.M.M.M.M.M.M.M.M.M.M.M.M.M.M.M.M.M.M.M.M.M.M.M.M.M.    L m.:.    M.M.M.M.M.M.",
"M.M.M.M.M.M.  q n.h.%   M.M.M.M.M.M.M.M.M.M.M.M.M.M.M.M.M.M.M.M.M.M.M.M.M.M.M.M.M.M.M.M.M.M.M.M.M.M.M.M.  & j.n.9   M.M.M.M.M.M.",
"M.M.M.M.M.    _ m.'     M.M.M.M.M.M.M.M.M.M.M.M.M.M.M.M.M.M.        M.M.M.M.M.M.M.M.M.M.M.M.M.M.M.M.M.M.    ] m./     M.M.M.M.M.",
"M.M.M.M.M.    t.m.d   M.M.M.M.M.M.M.M.M.M.M.M.M.M.M.M.M.M.            M.M.M.M.M.M.M.M.M.M.M.M.M.M.M.M.M.M.  h m.e.    M.M.M.M.M.",
"M.M.M.M.M.  7 m.i..   M.M.M.M.M.M.M.M.M.M.M.M.M.M.M.M.M.      M.M.      M.M.M.M.M.M.M.M.M.M.M.M.M.M.M.M.M.  . p.m.5   M.M.M.M.M.",
"M.M.M.M.M.  H m.@.    M.M.M.M.M.M.M.M.M.M.M.M.M.M.M.M.M.    M.M.M.M.    M.M.M.M.M.M.M.M.M.M.M.M.M.M.M.M.M.    #.m.G   M.M.M.M.M.",
"M.M.M.M.     .m.U   M.M.M.M.M.M.M.M.M.M.M.M.M.M.M.M.M.M.    M.M.M.M.M.M.M.M.M.M.M.M.M.M.M.M.M.M.M.M.M.M.M.M.  Y m.}     M.M.M.M.",
"M.M.M.M.    :.m.M   M.M.M.M.M.M.M.M.M.M.M.M.M.M.M.M.M.M.      M.M.M.M.M.M.M.M.M.M.M.M.M.M.M.M.M.M.M.M.M.M.M.  N m.;.    M.M.M.M.",
"M.M.        t.m.0       M.M.M.M.M.M.M.M.M.M.M.M.M.M.M.M.M.          M.M.M.M.M.M.M.M.M.M.M.M.M.M.M.M.M.M.      8 m.y.        M.M.",
"M.        f v.m.A         M.M.M.M.M.M.M.M.M.M.M.M.M.M.M.M.M.          M.M.M.M.M.M.M.M.M.M.M.M.M.M.M.M.        Z m.v.f         M.",
"M.    3.m.m.m.m.m.m.2.    M.M.M.M.M.M.M.M.M.M.M.M.M.M.M.M.M.M.M.M.      M.M.M.M.M.M.M.M.M.M.M.M.M.M.M.    3.m.m.m.m.m.m.2.    M.",
"M.    3.m.m.m.m.m.m.2.    M.M.M.M.M.M.M.M.M.M.M.M.M.M.M.M.M.M.M.M.M.    M.M.M.M.M.M.M.M.M.M.M.M.M.M.M.    3.m.m.m.m.m.m.2.    M.",
"M.        f v.m.C         M.M.M.M.M.M.M.M.M.M.M.M.M.M.M.    M.M.M.M.    M.M.M.M.M.M.M.M.M.M.M.M.M.M.M.        A m.v.d         M.",
"M.M.        y.m.8       M.M.M.M.M.M.M.M.M.M.M.M.M.M.M.M.      M.M.      M.M.M.M.M.M.M.M.M.M.M.M.M.M.M.M.      0 m.r.        M.M.",
"M.M.M.M.    >.m.m   M.M.M.M.M.M.M.M.M.M.M.M.M.M.M.M.M.M.M.            M.M.M.M.M.M.M.M.M.M.M.M.M.M.M.M.M.M.M.  V m.-.    M.M.M.M.",
"M.M.M.M.    ..m.I   M.M.M.M.M.M.M.M.M.M.M.M.M.M.M.M.M.M.M.M.        M.M.M.M.M.M.M.M.M.M.M.M.M.M.M.M.M.M.M.M.  R m.{     M.M.M.M.",
"M.M.M.M.M.  H m.@.    M.M.M.M.M.M.M.M.M.M.M.M.M.M.M.M.M.M.M.M.M.M.M.M.M.M.M.M.M.M.M.M.M.M.M.M.M.M.M.M.M.M.    *.m.D   M.M.M.M.M.",
"M.M.M.M.M.  7 m.i..   M.M.M.M.M.M.M.M.M.M.M.M.M.M.M.    M.M.M.M.M.M.M.M.    M.M.M.M.M.M.M.M.M.M.M.M.M.M.M.  X d.m.4   M.M.M.M.M.",
"M.M.M.M.M.    t.m.f   M.M.M.M.M.M.M.M.M.M.M.M.M.M.M.        M.M.M.M.        M.M.M.M.M.M.M.M.M.M.M.M.M.M.M.  k m.w.    M.M.M.M.M.",
"M.M.M.M.M.    ) m.'     M.M.M.M.M.M.M.M.M.M.M.M.M.M.M.      . M.M.        M.M.M.M.M.M.M.M.M.M.M.M.M.M.M.    } m.~     M.M.M.M.M.",
"M.M.M.M.M.M.  7 n.h.%   M.M.M.M.M.M.M.M.M.M.M.M.M.M.M.    #         +     M.M.M.M.M.M.M.M.M.M.M.M.M.M.M.  * k.n.7   M.M.M.M.M.M.",
"M.M.M.M.M.M.    >.m.K     M.M.M.M.M.M.M.M.M.M.M.M.M.M.M.  $ O.r 2 E @   M.M.M.M.M.M.M.M.M.M.M.M.M.M.M.    I m.;.    M.M.M.M.M.M.",
"M.M.M.M.M.M.M.  z m.a.&   M.M.M.M.M.M.M.M.M.M.M.M.M.M.M.    F m.4.l     M.M.M.M.M.M.M.M.M.M.M.M.M.M.M.  = d.m.c   M.M.M.M.M.M.M.",
"M.M.M.M.M.M.M.    ,.m.!     M.M.M.M.M.M.M.M.M.M.M.M.M.M.M.. . 9.o..   M.M.M.M.M.M.M.M.M.M.M.M.M.M.M.    ) m.;.    M.M.M.M.M.M.M.",
"M.M.M.M.M.M.M.M.  e z.z.r     M.M.M.M.M.M.M.M.M.M.M.M.M.M.    x u     M.M.M.M.M.M.M.M.M.M.M.M.M.M.    i c.z.w   M.M.M.M.M.M.M.M.",
"M.M.M.M.M.M.M.M.    ~ m.t.;     M.M.M.M.M.M.M.M.M.M.M.M.M.M.        M.M.M.M.M.M.M.M.M.M.M.M.M.M.    = e.m.W     M.M.M.M.M.M.M.M.",
"M.M.M.M.M.M.M.M.M.  o 5.m.%..   M.M.M.M.M.M.M.M.M.M.M.M.M.M.M.    M.M.M.M.M.M.M.M.M.M.M.M.M.M.M.  X =.m.7.O   M.M.M.M.M.M.M.M.M.",
"M.M.M.M.M.M.M.M.M.    < s.m.X.      M.M.M.M.M.M.M.M.M.M.M.M.M.    M.M.M.M.M.M.M.M.M.M.M.M.M.      { m.p.:     M.M.M.M.M.M.M.M.M.",
"M.M.M.M.M.M.M.M.M.M.    r j.m.| .     M.M.M.M.M.M.M.M.M.M.M.M.M.M.M.M.M.M.M.M.M.M.M.M.M.M.    X X.m.l.i     M.M.M.M.M.M.M.M.M.M.",
"M.M.M.M.M.M.M.M.M.M.M.    k l.m.&.=     M.M.M.M.M.M.M.M.M.M.M.M.M.M.M.M.M.M.M.M.M.M.M.M.    - =.m.k.k     M.M.M.M.M.M.M.M.M.M.M.",
"M.M.M.M.M.M.M.M.M.M.M.M.    i s.m.r.y       M.M.M.M.M.M.M.M.        M.M.M.M.M.M.M.M.      i t.m.a.t     M.M.M.M.M.M.M.M.M.M.M.M.",
"M.M.M.M.M.M.M.M.M.M.M.M.M.    , 6.m.x.( *       M.M.M.M.M.            M.M.M.M.M.      = ) c.m.6.>     M.M.M.M.M.M.M.M.M.M.M.M.M.",
"M.M.M.M.M.M.M.M.M.M.M.M.M.M.    O ! z.m.d.P *         M.M.    3.3.    M.M.        * I d.m.z.Q o     M.M.M.M.M.M.M.M.M.M.M.M.M.M.",
"M.M.M.M.M.M.M.M.M.M.M.M.M.M.M.      e >.m.m.k.[ j X           m.m.          X k } l.m.m.;.w       M.M.M.M.M.M.M.M.M.M.M.M.M.M.M.",
"M.M.M.M.M.M.M.M.M.M.M.M.M.M.M.M.M.      c :.n.m.m.s.%.T B q S m.m.A q B R &.d.m.m.n.;.x       M.M.M.M.M.M.M.M.M.M.M.M.M.M.M.M.M.",
"M.M.M.M.M.M.M.M.M.M.M.M.M.M.M.M.M.M.M.      8 / e.m.m.m.m.m.m.m.m.m.m.m.m.m.m.w.^ 7       M.M.M.M.M.M.M.M.M.M.M.M.M.M.M.M.M.M.M.",
"M.M.M.M.M.M.M.M.M.M.M.M.M.M.M.M.M.M.M.M.M.        5 G } ;.r.v.m.m.v.t.;.} G 5         M.M.M.M.M.M.M.M.M.M.M.M.M.M.M.M.M.M.M.M.M.",
"M.M.M.M.M.M.M.M.M.M.M.M.M.M.M.M.M.M.M.M.M.M.M.              f m.m.d               M.M.M.M.M.M.M.M.M.M.M.M.M.M.M.M.M.M.M.M.M.M.M.",
"M.M.M.M.M.M.M.M.M.M.M.M.M.M.M.M.M.M.M.M.M.M.M.M.M.M.M.        m.m.        M.M.M.M.M.M.M.M.M.M.M.M.M.M.M.M.M.M.M.M.M.M.M.M.M.M.M.",
"M.M.M.M.M.M.M.M.M.M.M.M.M.M.M.M.M.M.M.M.M.M.M.M.M.M.M.M.M.    2.2.    M.M.M.M.M.M.M.M.M.M.M.M.M.M.M.M.M.M.M.M.M.M.M.M.M.M.M.M.M.",
"M.M.M.M.M.M.M.M.M.M.M.M.M.M.M.M.M.M.M.M.M.M.M.M.M.M.M.M.M.            M.M.M.M.M.M.M.M.M.M.M.M.M.M.M.M.M.M.M.M.M.M.M.M.M.M.M.M.M.",
"M.M.M.M.M.M.M.M.M.M.M.M.M.M.M.M.M.M.M.M.M.M.M.M.M.M.M.M.M.M.        M.M.M.M.M.M.M.M.M.M.M.M.M.M.M.M.M.M.M.M.M.M.M.M.M.M.M.M.M.M.",
"M.M.M.M.M.M.M.M.M.M.M.M.M.M.M.M.M.M.M.M.M.M.M.M.M.M.M.M.M.M.M.M.M.M.M.M.M.M.M.M.M.M.M.M.M.M.M.M.M.M.M.M.M.M.M.M.M.M.M.M.M.M.M.M."
};
